<svg xmlns="http://www.w3.org/2000/svg" width="16" height="16" viewBox="0 0 16 16" fill="none">
  <!-- Document Base Frame with Folded Corner -->
  <path d="M2.5 1h7.5l3.5 3.5V14.5a0.5 0.5 0 0 1-0.5 0.5H2.5a0.5 0.5 0 0 1-0.5-0.5V1.5A0.5 0.5 0 0 1 2.5 1z" fill="#FFFFFF" stroke="#2B579A" stroke-width="1"/>
  <path d="M10 1v3.5h3.5" fill="none" stroke="#2B579A" stroke-width="1"/>
  
  <!-- XML Symbol (Blue < > Tag) in Top-Left -->
  <path d="M3 4l-1 1 1 1M5 4l1 1-1 1" stroke="#203647" stroke-width="1" stroke-linecap="round" stroke-linejoin="round"/>
  
  <!-- Horizontal Text Rows (Distinct from just XML tagging) -->
  <line x1="8" y1="3.5" x2="10" y2="3.5" stroke="#718096" stroke-width="1"/>
  <line x1="3" y1="7.5" x2="13" y2="7.5" stroke="#718096" stroke-width="1"/>
  <line x1="3" y1="9.5" x2="7" y2="9.5" stroke="#718096" stroke-width="1"/>
  <line x1="3" y1="11.5" x2="6" y2="11.5" stroke="#718096" stroke-width="1"/>
  
  <!-- Search Magnifying Glass (Vibrant red to denote search action) over Text -->
  <circle cx="10" cy="11" r="2.5" stroke="#D9381E" stroke-width="1" fill="#FFFFFF"/>
  <line x1="11.8" y1="12.8" x2="14.5" y2="15.5" stroke="#D9381E" stroke-width="1.3" stroke-linecap="round"/>
</svg>
